<svg xmlns="http://www.w3.org/2000/svg" xmlns:xlink="http://www.w3.org/1999/xlink" width="500" zoomAndPan="magnify" viewBox="0 0 375 374.999991" height="500" preserveAspectRatio="xMidYMid meet" version="1.0"><defs><clipPath id="54705a0a95"><path d="M 278 132 L 359.566406 132 L 359.566406 250.433594 L 278 250.433594 Z M 278 132 " clip-rule="nonzero"/></clipPath><clipPath id="5da7c3b434"><path d="M 234.316406 124.433594 L 317 124.433594 L 317 241 L 234.316406 241 Z M 234.316406 124.433594 " clip-rule="nonzero"/></clipPath></defs><g clip-path="url(#54705a0a95)"><path fill="#f58634" d="M 305.234375 179.507812 C 303.558594 178.683594 302.863281 176.636719 303.691406 174.960938 L 319.339844 143.199219 L 325.429688 146.203125 L 309.78125 177.964844 C 308.953125 179.640625 306.910156 180.335938 305.234375 179.507812 Z M 324.273438 132.523438 L 324.371094 132.601562 C 350.683594 146.996094 361.203125 179.730469 347.820312 206.898438 C 343.894531 214.863281 338.339844 221.492188 331.757812 226.574219 C 320.660156 235.140625 306.640625 239.320312 292.582031 238.136719 L 309.554688 203.683594 C 312.089844 198.730469 313.199219 197.910156 317.964844 195.90625 C 322.960938 193.804688 324.675781 193.375 327.347656 188.734375 C 332.457031 179.859375 337.957031 163.589844 341.40625 154.03125 L 337.300781 152.109375 C 332.960938 161.617188 330.722656 167.273438 326.183594 176.164062 C 315.726562 196.640625 314.195312 186.265625 306.574219 193.964844 C 305.691406 194.855469 302.417969 200.722656 298.527344 208.09375 L 280.472656 244.742188 L 278.828125 248.074219 C 296.03125 252.890625 315.160156 250.445312 331.175781 239.734375 C 342.113281 232.421875 350.042969 222.292969 354.652344 210.953125 C 354.414062 211.515625 354.164062 212.074219 353.910156 212.632812 C 367.574219 183.023438 355.214844 147.75 325.808594 133.25 C 325.300781 132.996094 324.785156 132.757812 324.273438 132.519531 Z M 313.941406 183.804688 C 312.269531 182.976562 311.574219 180.929688 312.398438 179.253906 L 328.046875 147.492188 L 334.136719 150.496094 L 318.488281 182.253906 C 317.664062 183.933594 315.617188 184.625 313.941406 183.800781 Z M 313.941406 183.804688 " fill-opacity="1" fill-rule="evenodd"/></g><g clip-path="url(#5da7c3b434)"><path fill="#69b550" d="M 237.652344 181.816406 L 238.71875 180.445312 C 239.496094 179.214844 239.132812 179.953125 239.871094 178.449219 L 244.203125 169.515625 C 249.492188 160.078125 262.308594 143.589844 277.09375 139.09375 C 267.039062 146.285156 252.34375 156.425781 242.738281 182.835938 C 234.0625 206.667969 239.832031 224.875 251.554688 233.511719 C 262.410156 241.511719 276.378906 243.488281 281.898438 232.75 C 286.203125 224.367188 290.863281 215.300781 295.367188 206.53125 C 298.839844 198.953125 301.496094 192.785156 301.667969 191.542969 C 303.128906 180.804688 293.96875 185.910156 303.835938 165.136719 C 308.121094 156.121094 311.238281 150.902344 316.132812 141.667969 L 312.109375 139.582031 C 306.628906 148.140625 297.082031 162.414062 293.160156 171.875 C 291.109375 176.824219 291.8125 178.441406 293.1875 183.6875 C 294.503906 188.6875 294.527344 190.070312 292.144531 195.097656 L 278.679688 221.34375 C 272.398438 233.585938 260.113281 230.332031 252.183594 221.261719 C 245.816406 213.984375 243.253906 202.492188 247.164062 190.132812 C 253.859375 186.402344 262.476562 187.101562 271.894531 180.921875 C 287.691406 170.558594 290.335938 141.355469 308.441406 128.863281 C 288.234375 113.402344 218.714844 140.1875 237.65625 181.816406 Z M 237.652344 181.816406 " fill-opacity="1" fill-rule="evenodd"/></g></svg>